<mxfile host="drawio-plugin" modified="2024-02-28T21:34:21.771Z" agent="5.0 (Windows NT 10.0; Win64; x64) AppleWebKit/537.36 (KHTML, like Gecko) Chrome/111.0.0.0 Safari/537.36" etag="A8uZzNA3nBHzlLgAPJkX" version="20.5.3" type="embed"><diagram id="C5RBs43oDa-KdzZeNtuy" name="Page-1"><mxGraphModel dx="560" dy="1488" grid="1" gridSize="10" guides="1" tooltips="1" connect="1" arrows="1" fold="1" page="1" pageScale="1" pageWidth="827" pageHeight="1169" math="0" shadow="0"><root><mxCell id="WIyWlLk6GJQsqaUBKTNV-0"/><mxCell id="WIyWlLk6GJQsqaUBKTNV-1" parent="WIyWlLk6GJQsqaUBKTNV-0"/><mxCell id="4gdQAfsDoQX2Zu8O-pw3-53" value="«interface»&lt;br&gt;Readable" style="swimlane;fontStyle=1;align=center;verticalAlign=middle;childLayout=stackLayout;horizontal=1;startSize=29;horizontalStack=0;resizeParent=1;resizeParentMax=0;resizeLast=0;collapsible=0;marginBottom=0;html=1;whiteSpace=wrap;" parent="WIyWlLk6GJQsqaUBKTNV-1" vertex="1"><mxGeometry x="274" y="40" width="140" height="70" as="geometry"/></mxCell><mxCell id="4gdQAfsDoQX2Zu8O-pw3-55" value="+checkout();&lt;br&gt;+returnBook();" style="text;html=1;strokeColor=none;fillColor=none;align=left;verticalAlign=middle;spacingLeft=4;spacingRight=4;overflow=hidden;rotatable=0;points=[[0,0.5],[1,0.5]];portConstraint=eastwest;whiteSpace=wrap;" parent="4gdQAfsDoQX2Zu8O-pw3-53" vertex="1"><mxGeometry y="29" width="140" height="41" as="geometry"/></mxCell><mxCell id="4gdQAfsDoQX2Zu8O-pw3-59" value="Book" style="swimlane;fontStyle=1;align=center;verticalAlign=top;childLayout=stackLayout;horizontal=1;startSize=26;horizontalStack=0;resizeParent=1;resizeParentMax=0;resizeLast=0;collapsible=1;marginBottom=0;whiteSpace=wrap;html=1;" parent="WIyWlLk6GJQsqaUBKTNV-1" vertex="1"><mxGeometry x="210" y="210" width="160" height="150" as="geometry"/></mxCell><mxCell id="4gdQAfsDoQX2Zu8O-pw3-60" value="name: String&lt;div&gt;&lt;br&gt;&lt;/div&gt;checkOut: boolean" style="text;strokeColor=none;fillColor=none;align=left;verticalAlign=top;spacingLeft=4;spacingRight=4;overflow=hidden;rotatable=0;points=[[0,0.5],[1,0.5]];portConstraint=eastwest;whiteSpace=wrap;html=1;" parent="4gdQAfsDoQX2Zu8O-pw3-59" vertex="1"><mxGeometry y="26" width="160" height="54" as="geometry"/></mxCell><mxCell id="4gdQAfsDoQX2Zu8O-pw3-61" value="" style="line;strokeWidth=1;fillColor=none;align=left;verticalAlign=middle;spacingTop=-1;spacingLeft=3;spacingRight=3;rotatable=0;labelPosition=right;points=[];portConstraint=eastwest;strokeColor=inherit;" parent="4gdQAfsDoQX2Zu8O-pw3-59" vertex="1"><mxGeometry y="80" width="160" height="8" as="geometry"/></mxCell><mxCell id="4gdQAfsDoQX2Zu8O-pw3-62" value="+ checkout();&lt;div&gt;&lt;br&gt;&lt;/div&gt;+returnBook();" style="text;strokeColor=none;fillColor=none;align=left;verticalAlign=top;spacingLeft=4;spacingRight=4;overflow=hidden;rotatable=0;points=[[0,0.5],[1,0.5]];portConstraint=eastwest;whiteSpace=wrap;html=1;" parent="4gdQAfsDoQX2Zu8O-pw3-59" vertex="1"><mxGeometry y="88" width="160" height="62" as="geometry"/></mxCell><mxCell id="4gdQAfsDoQX2Zu8O-pw3-83" value="" style="endArrow=block;dashed=1;endFill=0;endSize=12;html=1;rounded=0;entryX=0.5;entryY=1;entryDx=0;entryDy=0;exitX=0.5;exitY=0;exitDx=0;exitDy=0;" parent="WIyWlLk6GJQsqaUBKTNV-1" source="4gdQAfsDoQX2Zu8O-pw3-59" target="4gdQAfsDoQX2Zu8O-pw3-53" edge="1"><mxGeometry width="160" relative="1" as="geometry"><mxPoint x="310" y="210" as="sourcePoint"/><mxPoint x="470" y="210" as="targetPoint"/><Array as="points"><mxPoint x="290" y="160"/><mxPoint x="344" y="160"/></Array></mxGeometry></mxCell><mxCell id="4gdQAfsDoQX2Zu8O-pw3-84" value="NonfictionBook" style="swimlane;fontStyle=1;align=center;verticalAlign=top;childLayout=stackLayout;horizontal=1;startSize=26;horizontalStack=0;resizeParent=1;resizeParentMax=0;resizeLast=0;collapsible=1;marginBottom=0;whiteSpace=wrap;html=1;" parent="WIyWlLk6GJQsqaUBKTNV-1" vertex="1"><mxGeometry x="100" y="450" width="160" height="34" as="geometry"/></mxCell><mxCell id="4gdQAfsDoQX2Zu8O-pw3-86" value="" style="line;strokeWidth=1;fillColor=none;align=left;verticalAlign=middle;spacingTop=-1;spacingLeft=3;spacingRight=3;rotatable=0;labelPosition=right;points=[];portConstraint=eastwest;strokeColor=inherit;" parent="4gdQAfsDoQX2Zu8O-pw3-84" vertex="1"><mxGeometry y="26" width="160" height="8" as="geometry"/></mxCell><mxCell id="4gdQAfsDoQX2Zu8O-pw3-88" value="FictionBook&lt;div&gt;&lt;br/&gt;&lt;/div&gt;" style="swimlane;fontStyle=1;align=center;verticalAlign=top;childLayout=stackLayout;horizontal=1;startSize=26;horizontalStack=0;resizeParent=1;resizeParentMax=0;resizeLast=0;collapsible=1;marginBottom=0;whiteSpace=wrap;html=1;" parent="WIyWlLk6GJQsqaUBKTNV-1" vertex="1"><mxGeometry x="320" y="450" width="160" height="34" as="geometry"/></mxCell><mxCell id="4gdQAfsDoQX2Zu8O-pw3-90" value="" style="line;strokeWidth=1;fillColor=none;align=left;verticalAlign=middle;spacingTop=-1;spacingLeft=3;spacingRight=3;rotatable=0;labelPosition=right;points=[];portConstraint=eastwest;strokeColor=inherit;" parent="4gdQAfsDoQX2Zu8O-pw3-88" vertex="1"><mxGeometry y="26" width="160" height="8" as="geometry"/></mxCell><mxCell id="4gdQAfsDoQX2Zu8O-pw3-92" value="Extends" style="endArrow=block;endSize=16;endFill=0;html=1;rounded=0;exitX=0.5;exitY=0;exitDx=0;exitDy=0;" parent="WIyWlLk6GJQsqaUBKTNV-1" source="4gdQAfsDoQX2Zu8O-pw3-84" edge="1"><mxGeometry width="160" relative="1" as="geometry"><mxPoint x="290" y="340" as="sourcePoint"/><mxPoint x="290" y="360" as="targetPoint"/><Array as="points"><mxPoint x="180" y="410"/><mxPoint x="290" y="410"/></Array></mxGeometry></mxCell><mxCell id="4gdQAfsDoQX2Zu8O-pw3-93" value="Extends" style="endArrow=block;endSize=16;endFill=0;html=1;rounded=0;exitX=0.5;exitY=0;exitDx=0;exitDy=0;entryX=0.5;entryY=1;entryDx=0;entryDy=0;entryPerimeter=0;" parent="WIyWlLk6GJQsqaUBKTNV-1" source="4gdQAfsDoQX2Zu8O-pw3-88" target="4gdQAfsDoQX2Zu8O-pw3-62" edge="1"><mxGeometry width="160" relative="1" as="geometry"><mxPoint x="413" y="410" as="sourcePoint"/><mxPoint x="413" y="310" as="targetPoint"/><Array as="points"><mxPoint x="400" y="410"/><mxPoint x="290" y="410"/></Array></mxGeometry></mxCell><mxCell id="4gdQAfsDoQX2Zu8O-pw3-94" value="BookCollection" style="swimlane;fontStyle=1;align=center;verticalAlign=top;childLayout=stackLayout;horizontal=1;startSize=26;horizontalStack=0;resizeParent=1;resizeParentMax=0;resizeLast=0;collapsible=1;marginBottom=0;whiteSpace=wrap;html=1;" parent="WIyWlLk6GJQsqaUBKTNV-1" vertex="1"><mxGeometry x="520" y="210" width="220" height="170" as="geometry"/></mxCell><mxCell id="4gdQAfsDoQX2Zu8O-pw3-95" value="-children: ArrayList&amp;lt;Readable&amp;gt;&lt;br&gt;&lt;div&gt;&lt;br&gt;&lt;/div&gt;" style="text;strokeColor=none;fillColor=none;align=left;verticalAlign=top;spacingLeft=4;spacingRight=4;overflow=hidden;rotatable=0;points=[[0,0.5],[1,0.5]];portConstraint=eastwest;whiteSpace=wrap;html=1;" parent="4gdQAfsDoQX2Zu8O-pw3-94" vertex="1"><mxGeometry y="26" width="220" height="34" as="geometry"/></mxCell><mxCell id="4gdQAfsDoQX2Zu8O-pw3-96" value="" style="line;strokeWidth=1;fillColor=none;align=left;verticalAlign=middle;spacingTop=-1;spacingLeft=3;spacingRight=3;rotatable=0;labelPosition=right;points=[];portConstraint=eastwest;strokeColor=inherit;" parent="4gdQAfsDoQX2Zu8O-pw3-94" vertex="1"><mxGeometry y="60" width="220" height="8" as="geometry"/></mxCell><mxCell id="4gdQAfsDoQX2Zu8O-pw3-97" value="+getChildren(): ArrayList&amp;lt;Readable&amp;gt;;&lt;br&gt;+add(readable: Readable);&lt;br&gt;+remove(readable: Readable);&lt;br&gt;+checkout();&lt;br&gt;+returnBook();" style="text;strokeColor=none;fillColor=none;align=left;verticalAlign=top;spacingLeft=4;spacingRight=4;overflow=hidden;rotatable=0;points=[[0,0.5],[1,0.5]];portConstraint=eastwest;whiteSpace=wrap;html=1;" parent="4gdQAfsDoQX2Zu8O-pw3-94" vertex="1"><mxGeometry y="68" width="220" height="102" as="geometry"/></mxCell><mxCell id="4gdQAfsDoQX2Zu8O-pw3-98" value="" style="endArrow=block;dashed=1;endFill=0;endSize=12;html=1;rounded=0;exitX=0.456;exitY=0;exitDx=0;exitDy=0;exitPerimeter=0;" parent="WIyWlLk6GJQsqaUBKTNV-1" source="4gdQAfsDoQX2Zu8O-pw3-94" edge="1"><mxGeometry width="160" relative="1" as="geometry"><mxPoint x="466" y="200" as="sourcePoint"/><mxPoint x="344" y="110" as="targetPoint"/><Array as="points"><mxPoint x="620" y="160"/><mxPoint x="344" y="160"/></Array></mxGeometry></mxCell><mxCell id="4gdQAfsDoQX2Zu8O-pw3-102" value="&lt;div style=&quot;background-color:#1e1f22;color:#bcbec4&quot;&gt;&lt;pre style=&quot;font-family:'JetBrains Mono',monospace;font-size:9.8pt;&quot;&gt;checkout() {&lt;br&gt;  &lt;span style=&quot;color:#cf8e6d;&quot;&gt;for &lt;/span&gt;(Readable child : &lt;span style=&quot;color:#c77dbb;&quot;&gt;children&lt;/span&gt;) {&lt;br&gt;    child.checkout();&lt;br&gt;  }&lt;br&gt;}&lt;/pre&gt;&lt;/div&gt;" style="text;whiteSpace=wrap;html=1;" parent="WIyWlLk6GJQsqaUBKTNV-1" vertex="1"><mxGeometry x="770" y="250" width="280" height="130" as="geometry"/></mxCell><mxCell id="4gdQAfsDoQX2Zu8O-pw3-104" value="" style="endArrow=none;dashed=1;html=1;rounded=0;entryX=0;entryY=0.5;entryDx=0;entryDy=0;" parent="WIyWlLk6GJQsqaUBKTNV-1" target="4gdQAfsDoQX2Zu8O-pw3-102" edge="1"><mxGeometry width="50" height="50" relative="1" as="geometry"><mxPoint x="740" y="340" as="sourcePoint"/><mxPoint x="630" y="430" as="targetPoint"/></mxGeometry></mxCell><mxCell id="4gdQAfsDoQX2Zu8O-pw3-105" value="&lt;div style=&quot;background-color:#1e1f22;color:#bcbec4&quot;&gt;&lt;pre style=&quot;font-family:'JetBrains Mono',monospace;font-size:9.8pt;&quot;&gt;&lt;span style=&quot;color:#56a8f5;&quot;&gt;returnBook&lt;/span&gt;() {&lt;br&gt;  &lt;span style=&quot;color:#cf8e6d;&quot;&gt;for &lt;/span&gt;(Readable child : &lt;span style=&quot;color:#c77dbb;&quot;&gt;children&lt;/span&gt;) {&lt;br&gt;    child.returnBook();&lt;br&gt;  }&lt;br&gt;&lt;br&gt;}&lt;/pre&gt;&lt;/div&gt;" style="text;whiteSpace=wrap;html=1;" parent="WIyWlLk6GJQsqaUBKTNV-1" vertex="1"><mxGeometry x="770" y="370" width="250" height="120" as="geometry"/></mxCell><mxCell id="4gdQAfsDoQX2Zu8O-pw3-106" value="" style="endArrow=none;dashed=1;html=1;rounded=0;entryX=0;entryY=0.5;entryDx=0;entryDy=0;exitX=1.012;exitY=0.749;exitDx=0;exitDy=0;exitPerimeter=0;" parent="WIyWlLk6GJQsqaUBKTNV-1" source="4gdQAfsDoQX2Zu8O-pw3-97" target="4gdQAfsDoQX2Zu8O-pw3-105" edge="1"><mxGeometry width="50" height="50" relative="1" as="geometry"><mxPoint x="750" y="350" as="sourcePoint"/><mxPoint x="820" y="325" as="targetPoint"/></mxGeometry></mxCell><mxCell id="4gdQAfsDoQX2Zu8O-pw3-107" value="LibraryClient" style="swimlane;fontStyle=1;align=center;verticalAlign=top;childLayout=stackLayout;horizontal=1;startSize=26;horizontalStack=0;resizeParent=1;resizeParentMax=0;resizeLast=0;collapsible=1;marginBottom=0;whiteSpace=wrap;html=1;" parent="WIyWlLk6GJQsqaUBKTNV-1" vertex="1"><mxGeometry x="414" y="520" width="250" height="110" as="geometry"/></mxCell><mxCell id="4gdQAfsDoQX2Zu8O-pw3-109" value="" style="line;strokeWidth=1;fillColor=none;align=left;verticalAlign=middle;spacingTop=-1;spacingLeft=3;spacingRight=3;rotatable=0;labelPosition=right;points=[];portConstraint=eastwest;strokeColor=inherit;" parent="4gdQAfsDoQX2Zu8O-pw3-107" vertex="1"><mxGeometry y="26" width="250" height="8" as="geometry"/></mxCell><mxCell id="4gdQAfsDoQX2Zu8O-pw3-110" value="+checkoutReadable(readable: Readable);+returnReadable(readable: Readable);&lt;br&gt;+main(args: String[]);" style="text;strokeColor=none;fillColor=none;align=left;verticalAlign=top;spacingLeft=4;spacingRight=4;overflow=hidden;rotatable=0;points=[[0,0.5],[1,0.5]];portConstraint=eastwest;whiteSpace=wrap;html=1;" parent="4gdQAfsDoQX2Zu8O-pw3-107" vertex="1"><mxGeometry y="34" width="250" height="76" as="geometry"/></mxCell><mxCell id="4gdQAfsDoQX2Zu8O-pw3-112" value="" style="endArrow=diamondThin;endFill=0;endSize=24;html=1;rounded=0;entryX=0.67;entryY=0;entryDx=0;entryDy=0;entryPerimeter=0;" parent="WIyWlLk6GJQsqaUBKTNV-1" source="4gdQAfsDoQX2Zu8O-pw3-55" target="4gdQAfsDoQX2Zu8O-pw3-94" edge="1"><mxGeometry width="160" relative="1" as="geometry"><mxPoint x="390" y="-40" as="sourcePoint"/><mxPoint x="550" y="-40" as="targetPoint"/><Array as="points"><mxPoint x="670" y="90"/></Array></mxGeometry></mxCell><mxCell id="4gdQAfsDoQX2Zu8O-pw3-116" value="" style="html=1;verticalAlign=bottom;endArrow=open;dashed=1;endSize=8;curved=0;rounded=0;exitX=0.552;exitY=-0.02;exitDx=0;exitDy=0;exitPerimeter=0;entryX=0.987;entryY=0.915;entryDx=0;entryDy=0;entryPerimeter=0;" parent="WIyWlLk6GJQsqaUBKTNV-1" source="4gdQAfsDoQX2Zu8O-pw3-94" target="4gdQAfsDoQX2Zu8O-pw3-55" edge="1"><mxGeometry relative="1" as="geometry"><mxPoint x="890" y="120" as="sourcePoint"/><mxPoint x="810" y="120" as="targetPoint"/><Array as="points"><mxPoint x="641" y="107"/></Array></mxGeometry></mxCell><mxCell id="4gdQAfsDoQX2Zu8O-pw3-117" value="" style="html=1;verticalAlign=bottom;endArrow=open;dashed=1;endSize=8;curved=0;rounded=0;exitX=0;exitY=0.5;exitDx=0;exitDy=0;entryX=0.5;entryY=0;entryDx=0;entryDy=0;" parent="WIyWlLk6GJQsqaUBKTNV-1" source="4gdQAfsDoQX2Zu8O-pw3-107" target="4gdQAfsDoQX2Zu8O-pw3-53" edge="1"><mxGeometry relative="1" as="geometry"><mxPoint x="629" y="50" as="sourcePoint"/><mxPoint x="400" y="-50" as="targetPoint"/><Array as="points"><mxPoint x="50" y="565"/><mxPoint x="50"/><mxPoint x="344"/></Array></mxGeometry></mxCell><mxCell id="4gdQAfsDoQX2Zu8O-pw3-118" value="" style="html=1;verticalAlign=bottom;endArrow=open;dashed=1;endSize=8;curved=0;rounded=0;exitX=0.25;exitY=0;exitDx=0;exitDy=0;" parent="WIyWlLk6GJQsqaUBKTNV-1" source="4gdQAfsDoQX2Zu8O-pw3-107" target="4gdQAfsDoQX2Zu8O-pw3-88" edge="1"><mxGeometry relative="1" as="geometry"><mxPoint x="456" y="510" as="sourcePoint"/><mxPoint x="190" y="585" as="targetPoint"/><Array as="points"/></mxGeometry></mxCell><mxCell id="4gdQAfsDoQX2Zu8O-pw3-119" value="" style="html=1;verticalAlign=bottom;endArrow=open;dashed=1;endSize=8;curved=0;rounded=0;exitX=0.25;exitY=0;exitDx=0;exitDy=0;" parent="WIyWlLk6GJQsqaUBKTNV-1" source="4gdQAfsDoQX2Zu8O-pw3-107" target="4gdQAfsDoQX2Zu8O-pw3-84" edge="1"><mxGeometry relative="1" as="geometry"><mxPoint x="447" y="595" as="sourcePoint"/><mxPoint x="381" y="494" as="targetPoint"/><Array as="points"/></mxGeometry></mxCell><mxCell id="4gdQAfsDoQX2Zu8O-pw3-120" value="" style="html=1;verticalAlign=bottom;endArrow=open;dashed=1;endSize=8;curved=0;rounded=0;" parent="WIyWlLk6GJQsqaUBKTNV-1" source="4gdQAfsDoQX2Zu8O-pw3-107" target="4gdQAfsDoQX2Zu8O-pw3-94" edge="1"><mxGeometry relative="1" as="geometry"><mxPoint x="576" y="571" as="sourcePoint"/><mxPoint x="510" y="470" as="targetPoint"/><Array as="points"/></mxGeometry></mxCell></root></mxGraphModel></diagram></mxfile>